<?xml version="1.0" encoding="UTF-8" standalone="no"?> <svg width="512" height="512" viewBox="0 0 512 512" fill="none" xmlns="http://www.w3.org/2000/svg">
<path d="M501.45 220.35C501.179 218.46 500.241 216.729 498.805 215.471C497.37 214.212 495.531 213.508 493.622 213.486C491.713 213.465 489.859 214.126 488.395 215.352C486.931 216.578 485.954 218.287 485.64 220.17C478.981 259.281 458.698 294.774 428.382 320.366C398.067 345.957 359.674 359.997 320 360C227.36 360 152 284.64 152 192C152.003 152.327 166.043 113.933 191.635 83.6178C217.226 53.3021 252.719 33.0193 291.83 26.36C293.713 26.046 295.422 25.0687 296.648 23.6049C297.874 22.141 298.535 20.287 298.514 18.3779C298.492 16.4687 297.788 14.6303 296.529 13.1947C295.271 11.7591 293.54 10.8211 291.65 10.55C279.843 8.8522 267.929 8.00003 256 8C206.951 8.00098 159.004 22.5465 118.221 49.7971C77.4387 77.0478 45.6527 115.78 26.8826 161.095C8.11247 206.411 3.20125 256.274 12.77 304.381C22.3387 352.488 45.9576 396.677 80.64 431.36C115.323 466.042 159.512 489.661 207.619 499.23C255.726 508.799 305.589 503.888 350.905 485.117C396.22 466.347 434.952 434.561 462.203 393.779C489.454 352.996 503.999 305.049 504 256C504 244.071 503.148 232.157 501.45 220.35V220.35ZM420.05 420.05C376.541 463.559 317.531 488.002 256 488.002C194.469 488.002 135.459 463.559 91.95 420.05C48.4413 376.541 23.9983 317.531 23.9983 256C23.9983 194.469 48.4413 135.459 91.95 91.95C132.498 51.1745 186.831 27.0399 244.27 24.29C212.003 38.8677 184.626 62.4436 165.422 92.1906C146.218 121.938 136.002 156.593 136 192C136 293.46 218.54 376 320 376C355.407 375.998 390.062 365.782 419.809 346.578C449.556 327.374 473.132 299.997 487.71 267.73C484.96 325.169 460.825 379.502 420.05 420.05V420.05Z" fill="black"/>
<path d="M248 176C248 193.405 253.161 210.419 262.831 224.89C272.5 239.362 286.244 250.641 302.324 257.301C318.404 263.962 336.098 265.705 353.168 262.309C370.238 258.914 385.918 250.532 398.225 238.225C410.532 225.918 418.914 210.238 422.309 193.168C425.705 176.098 423.962 158.404 417.301 142.324C410.641 126.244 399.362 112.5 384.89 102.831C370.419 93.1611 353.405 88 336 88C312.669 88.0265 290.301 97.3064 273.804 113.804C257.306 130.301 248.026 152.669 248 176V176ZM408 176C408 190.24 403.777 204.161 395.866 216.001C387.954 227.841 376.709 237.07 363.553 242.519C350.397 247.969 335.92 249.395 321.953 246.617C307.987 243.838 295.158 236.981 285.088 226.912C275.019 216.842 268.162 204.013 265.383 190.047C262.605 176.08 264.031 161.603 269.481 148.447C274.93 135.291 284.159 124.046 295.999 116.134C307.839 108.223 321.76 104 336 104C355.089 104.021 373.39 111.614 386.888 125.112C400.386 138.61 407.979 156.911 408 176V176Z" fill="black"/>
<path d="M336 80C338.122 80 340.157 79.1571 341.657 77.6569C343.157 76.1566 344 74.1217 344 72V56C344 53.8783 343.157 51.8434 341.657 50.3431C340.157 48.8429 338.122 48 336 48C333.878 48 331.843 48.8429 330.343 50.3431C328.843 51.8434 328 53.8783 328 56V72C328 74.1217 328.843 76.1566 330.343 77.6569C331.843 79.1571 333.878 80 336 80Z" fill="black"/>
<path d="M328 280V296C328 298.122 328.843 300.157 330.343 301.657C331.843 303.157 333.878 304 336 304C338.122 304 340.157 303.157 341.657 301.657C343.157 300.157 344 298.122 344 296V280C344 277.878 343.157 275.843 341.657 274.343C340.157 272.843 338.122 272 336 272C333.878 272 331.843 272.843 330.343 274.343C328.843 275.843 328 277.878 328 280Z" fill="black"/>
<path d="M440 184H456C458.122 184 460.157 183.157 461.657 181.657C463.157 180.157 464 178.122 464 176C464 173.878 463.157 171.843 461.657 170.343C460.157 168.843 458.122 168 456 168H440C437.878 168 435.843 168.843 434.343 170.343C432.843 171.843 432 173.878 432 176C432 178.122 432.843 180.157 434.343 181.657C435.843 183.157 437.878 184 440 184Z" fill="black"/>
<path d="M216 168C213.878 168 211.843 168.843 210.343 170.343C208.843 171.843 208 173.878 208 176C208 178.122 208.843 180.157 210.343 181.657C211.843 183.157 213.878 184 216 184H232C234.122 184 236.157 183.157 237.657 181.657C239.157 180.157 240 178.122 240 176C240 173.878 239.157 171.843 237.657 170.343C236.157 168.843 234.122 168 232 168H216Z" fill="black"/>
<path d="M409.539 110.461C410.59 110.462 411.631 110.256 412.602 109.854C413.572 109.452 414.454 108.862 415.196 108.118L426.51 96.8C427.285 96.0645 427.904 95.1815 428.331 94.203C428.759 93.2245 428.986 92.1703 429 91.1026C429.013 90.0349 428.813 88.9752 428.411 87.9861C428.008 86.997 427.412 86.0984 426.657 85.3433C425.902 84.5883 425.003 83.992 424.014 83.5897C423.025 83.1874 421.965 82.9872 420.898 83.0008C419.83 83.0145 418.776 83.2418 417.797 83.6693C416.819 84.0968 415.936 84.7159 415.2 85.49L403.882 96.8C402.763 97.9188 402.002 99.3443 401.693 100.896C401.384 102.448 401.543 104.057 402.148 105.519C402.754 106.98 403.779 108.23 405.095 109.109C406.41 109.988 407.957 110.457 409.539 110.457V110.461Z" fill="black"/>
<path d="M245.49 266.51C246.233 267.253 247.115 267.842 248.085 268.244C249.056 268.646 250.096 268.853 251.147 268.853C252.197 268.853 253.238 268.646 254.208 268.244C255.179 267.842 256.061 267.253 256.804 266.51L268.118 255.2C268.861 254.457 269.45 253.575 269.853 252.604C270.255 251.633 270.462 250.592 270.462 249.541C270.462 248.49 270.255 247.449 269.853 246.478C269.45 245.507 268.861 244.625 268.118 243.882C267.375 243.139 266.492 242.549 265.521 242.147C264.55 241.745 263.51 241.538 262.459 241.538C261.408 241.538 260.367 241.745 259.396 242.147C258.425 242.549 257.543 243.139 256.8 243.882L245.49 255.2C243.991 256.7 243.148 258.734 243.148 260.855C243.148 262.976 243.991 265.01 245.49 266.51V266.51Z" fill="black"/>
<path d="M415.2 243.882C414.457 243.139 413.575 242.549 412.604 242.147C411.633 241.745 410.592 241.538 409.541 241.538C408.49 241.538 407.449 241.745 406.478 242.147C405.508 242.549 404.625 243.139 403.882 243.882C403.139 244.625 402.549 245.507 402.147 246.478C401.745 247.449 401.538 248.49 401.538 249.541C401.538 250.592 401.745 251.633 402.147 252.604C402.549 253.575 403.139 254.457 403.882 255.2L415.2 266.51C415.936 267.284 416.819 267.903 417.797 268.331C418.776 268.758 419.83 268.986 420.898 268.999C421.965 269.013 423.025 268.813 424.014 268.41C425.003 268.008 425.902 267.412 426.657 266.657C427.412 265.902 428.008 265.003 428.41 264.014C428.813 263.025 429.013 261.965 428.999 260.897C428.986 259.83 428.758 258.775 428.331 257.797C427.903 256.818 427.284 255.935 426.51 255.2L415.2 243.882Z" fill="black"/>
<path d="M256.8 108.118C257.543 108.861 258.425 109.451 259.396 109.853C260.367 110.255 261.408 110.462 262.459 110.462C263.51 110.462 264.55 110.255 265.521 109.853C266.492 109.451 267.375 108.861 268.118 108.118C268.861 107.375 269.45 106.493 269.853 105.522C270.255 104.551 270.462 103.51 270.462 102.459C270.462 101.408 270.255 100.367 269.853 99.3964C269.45 98.4254 268.861 97.5432 268.118 96.8L256.8 85.49C256.064 84.7159 255.181 84.0968 254.203 83.6693C253.224 83.2418 252.17 83.0145 251.102 83.0008C250.035 82.9872 248.975 83.1874 247.986 83.5897C246.997 83.992 246.098 84.5883 245.343 85.3433C244.588 86.0984 243.992 86.997 243.59 87.9861C243.187 88.9752 242.987 90.0349 243.001 91.1026C243.014 92.1703 243.242 93.2245 243.669 94.203C244.097 95.1815 244.716 96.0645 245.49 96.8L256.8 108.118Z" fill="black"/>
</svg>
